HIERARCHY
ROOT Hips
{
	OFFSET	0.00	0.00	0.00
	CHANNELS 6 Xposition Yposition Zposition Zrotation Xrotation Yrotation
	JOINT LeftUpperLeg
	{
		OFFSET	 0.100000	-0.066564	-0.000554
		CHANNELS 3 Zrotation Xrotation Yrotation
		JOINT LeftLowerLeg
		{
			OFFSET	 0.002447	-0.463436	-0.005172
			CHANNELS 3 Zrotation Xrotation Yrotation
			JOINT LeftFoot
			{
				OFFSET	-0.002447	-0.420480	-0.020576
				CHANNELS 3 Zrotation Xrotation Yrotation
				JOINT LeftToes
				{
					OFFSET	 0.003734	-0.104922	 0.126407
					CHANNELS 3 Zrotation Xrotation Yrotation
					End Site
					{
						OFFSET	 0.000000	 0.000000	 0.059955
					}
				}
			}
		}
	}
	JOINT RightUpperLeg
	{
		OFFSET	-0.100000	-0.066564	-0.000554
		CHANNELS 3 Zrotation Xrotation Yrotation
		JOINT RightLowerLeg
		{
			OFFSET	-0.002447	-0.463436	-0.005146
			CHANNELS 3 Zrotation Xrotation Yrotation
			JOINT RightFoot
			{
				OFFSET	 0.002447	-0.420479	-0.020602
				CHANNELS 3 Zrotation Xrotation Yrotation
				JOINT RightToes
				{
					OFFSET	-0.003734	-0.104922	 0.126407
					CHANNELS 3 Zrotation Xrotation Yrotation
					End Site
					{
						OFFSET	-0.000000	 0.000000	 0.059955
					}
				}
			}
		}
	}
	JOINT Spine
	{
		OFFSET	 0.000000	 0.099235	-0.012273
		CHANNELS 3 Zrotation Xrotation Yrotation
		JOINT Chest
		{
			OFFSET	-0.000001	 0.116455	-0.014223
			CHANNELS 3 Zrotation Xrotation Yrotation
			JOINT UpperChest
			{
				OFFSET	 0.000001	 0.133602	-0.016265
				CHANNELS 3 Zrotation Xrotation Yrotation
				JOINT LeftShoulder
				{
					OFFSET	 0.061058	 0.091105	 0.007056
					CHANNELS 3 Zrotation Xrotation Yrotation
					JOINT LeftUpperArm
					{
						OFFSET	 0.133942	-0.002659	-0.026009
						CHANNELS 3 Zrotation Xrotation Yrotation
						JOINT LeftLowerArm
						{
							OFFSET	 0.274047	 0.000000	 0.000000
							CHANNELS 3 Zrotation Xrotation Yrotation
							JOINT LeftHand
							{
								OFFSET	 0.276145	 0.000000	 0.000000
								CHANNELS 3 Zrotation Xrotation Yrotation
								End Site
								{
									OFFSET	 0.165687	 0.000000	 0.000000
								}
							}
						}
					}
				}
				JOINT Neck
				{
					OFFSET	 0.000000	 0.150325	 0.007929
					CHANNELS 3 Zrotation Xrotation Yrotation
					JOINT Head
					{
						OFFSET	 0.000000	 0.103218	 0.031424
						CHANNELS 3 Zrotation Xrotation Yrotation
						End Site
						{
							OFFSET	 0.000000	 0.061931	 0.018855
						}
					}
				}
				JOINT RightShoulder
				{
					OFFSET	-0.061057	 0.091105	 0.007056
					CHANNELS 3 Zrotation Xrotation Yrotation
					JOINT RightUpperArm
					{
						OFFSET	-0.133943	-0.002660	-0.026009
						CHANNELS 3 Zrotation Xrotation Yrotation
						JOINT RightLowerArm
						{
							OFFSET	-0.274047	 0.000000	 0.000000
							CHANNELS 3 Zrotation Xrotation Yrotation
							JOINT RightHand
							{
								OFFSET	-0.276145	 0.000000	 0.000000
								CHANNELS 3 Zrotation Xrotation Yrotation
								End Site
								{
									OFFSET	-0.165687	 0.000000	 0.000000
								}
							}
						}
					}
				}
			}
		}
	}
}
MOTION
Frames:    13
Frame Time: 0.03333334
-0.315680	 1.065400	-0.551500	-2.862880	 1.780083	-104.946400	 1.871001	 8.287189	-9.520066	-0.002080	 0.078694	 0.000507	-1.148712	-2.927068	 35.250850	-0.000056	-0.770753	 0.034283	-5.149875	-10.504540	-1.357010	-1.083140	 56.898410	 0.586637	-2.034744	 5.563826	-16.622080	 0.000269	 3.158402	-0.000144	 0.255496	 1.673221	-0.781631	-0.000000	 0.000000	 0.000000	 0.536402	 3.347191	-1.574144	 1.767810	 4.335646	 13.153540	-78.809010	-1.324347	-1.482146	-26.985570	 32.649030	-69.173190	 39.293540	 26.772620	-27.794270	-5.899952	 12.493360	 12.014430	-5.875856	 12.039530	 12.285100	-1.726849	 2.302196	-14.232240	 77.531000	 8.892853	 11.256260	 29.304020	 37.910640	 77.750530	-26.860130	-2.469364	 13.723760
-0.331540	 1.064280	-0.551680	-2.906875	 2.215682	-104.616000	 2.052981	 9.375353	-9.628062	-0.002581	 0.092714	 0.000311	-0.549215	-3.863710	 35.152860	-0.000607	-0.661290	 0.045200	-4.403726	-12.939250	-2.163909	-1.607573	 56.691840	 0.866846	-2.571695	 1.286070	-17.424310	 0.000023	 2.162038	-0.000357	 0.376702	 1.733014	-0.935199	-0.000000	 0.000000	 0.000000	 0.782352	 3.465289	-1.884611	 2.366914	 3.929089	 13.108440	-79.071310	-1.104072	-1.229997	-27.529700	 32.722250	-68.629310	 40.426180	 26.322110	-28.201470	-5.472465	 12.207200	 11.939520	-5.776080	 12.053480	 12.229010	-1.206891	 1.909136	-14.412880	 77.343430	 9.111646	 11.360130	 29.799570	 37.819390	 77.473830	-26.631970	-3.458035	 13.551210
-0.351240	 1.062960	-0.553080	-2.861229	 3.011045	-103.756800	 2.721656	 10.649440	-9.437332	-0.001784	 0.092799	 0.000399	 0.041522	-4.943418	 34.285990	-0.000063	-0.710183	 0.062203	-2.844961	-15.334820	-2.546431	-1.158398	 53.473780	 0.583416	-2.135725	-5.408845	-17.295370	-0.000334	 1.106291	-0.000072	 0.605267	 1.799246	-1.158043	-0.000000	 0.000000	 0.000000	 1.248646	 3.592976	-2.342001	 3.035570	 3.768418	 12.790290	-79.244130	-0.968508	-1.069193	-27.606770	 32.670300	-68.639490	 40.116950	 26.065920	-28.077100	-4.992397	 12.237520	 11.528870	-5.542082	 12.055190	 11.951560	-0.636385	 1.996514	-14.803940	 77.074550	 9.025278	 11.537520	 30.424670	 37.902870	 77.242000	-26.403180	-4.713717	 13.113050
-0.365920	 1.061800	-0.554410	-2.878020	 3.387176	-102.873800	 3.107442	 11.563260	-10.173390	-0.001877	 0.082183	 0.000741	 0.287761	-5.777724	 34.245940	 0.000660	-0.714379	 0.060246	-1.420994	-17.068290	-3.247378	-1.154313	 49.651510	 0.533840	-1.988461	-7.651787	-17.969140	 0.000020	 0.696898	 0.000558	 0.683371	 1.881244	-1.382312	-0.000000	 0.000000	 0.000000	 1.416747	 3.751006	-2.792269	 3.103058	 3.632194	 12.760550	-79.313960	-0.804459	-1.081813	-27.685120	 32.687570	-68.579600	 40.188070	 25.984050	-28.181330	-4.915451	 12.391700	 11.399130	-5.168878	 12.188760	 11.832740	-0.595717	 2.036227	-14.860270	 76.940800	 8.900417	 11.672790	 30.829210	 37.922040	 77.129520	-26.209980	-5.521497	 12.667880
-0.384930	 1.059670	-0.556850	-2.517141	 3.539270	-102.024100	 3.351358	 12.333360	-10.479970	-0.001640	 0.083476	-0.000608	 0.735963	-6.932198	 33.935510	-0.000359	-0.274344	 0.061948	 0.339449	-19.693270	-3.536390	-1.023994	 44.145460	 0.415626	-1.156479	-9.490085	-16.980010	-0.000566	 0.461864	-0.000987	 0.609222	 1.979070	-1.628845	-0.000000	 0.000000	 0.000000	 1.277624	 3.946855	-3.289552	 3.258747	 3.283825	 12.845610	-79.726680	 0.237660	-0.922931	-26.658290	 31.939270	-69.445240	 40.166770	 25.981860	-28.316340	-4.815327	 12.226960	 11.386930	-4.771271	 11.997890	 11.887050	-0.343184	 1.603470	-14.605230	 77.056410	 9.004416	 12.286560	 31.653640	 37.531150	 76.463940	-26.047100	-6.403626	 12.387880
-0.398700	 1.057820	-0.558080	-2.312853	 3.373285	-101.424800	 3.237767	 12.881270	-10.912790	-0.002651	 0.083260	-0.000534	 0.947205	-7.745126	 33.908780	-0.000232	 0.036566	 0.054571	 1.150822	-21.468390	-3.528307	-0.831653	 39.981140	 0.301580	 0.627907	-10.883790	-13.882870	 0.000503	 0.384995	-0.000339	 0.593476	 1.973174	-1.584903	-0.000000	 0.000000	 0.000000	 1.243993	 3.933867	-3.198615	 2.422093	 3.525718	 11.722940	-79.536310	 0.209787	-0.867858	-25.734860	 31.199010	-70.200470	 40.572790	 26.181880	-28.626660	-4.657969	 12.030620	 11.797610	-4.605902	 12.051670	 11.710710	-0.181490	 1.365319	-14.115540	 77.186860	 8.941958	 12.295520	 31.798950	 37.496090	 76.546080	-25.481400	-7.348805	 12.502960
-0.414910	 1.055010	-0.560730	-1.865575	 3.121851	-100.588600	 3.172877	 13.317200	-10.889210	-0.002225	 0.077463	 0.000668	 1.314204	-8.731826	 33.297480	 0.000482	 0.364346	 0.148212	 1.937276	-23.931540	-4.484855	-0.551061	 34.913390	 0.173119	 1.967926	-9.988291	-7.977852	-0.000426	 0.368235	 0.462061	 0.499249	 2.051075	-1.636248	-0.000000	 0.000000	 0.000000	 1.060783	 4.094474	-3.297562	 2.301978	 3.473936	 11.468420	-79.859640	 1.379980	-0.497471	-24.743030	 30.217280	-71.378520	 40.769910	 25.912440	-28.938510	-4.632317	 11.916050	 11.689190	-4.461853	 11.758670	 11.791500	-0.125433	 1.027809	-13.796690	 77.467220	 9.213697	 12.382620	 31.807760	 37.050120	 76.776540	-24.728970	-8.372895	 12.678290
-0.428700	 1.052750	-0.562570	-1.974367	 2.763218	-99.115130	 3.082721	 14.024980	-12.212440	-0.002327	 0.078698	 0.000583	 1.559090	-9.437970	 33.295360	-0.000359	 0.364603	 0.157270	 1.844165	-25.056460	-7.807791	-1.414012	 31.829180	 0.402894	 3.707911	-10.337610	-0.390583	-0.000536	 0.438288	 0.883996	 0.381905	 2.217716	-1.863295	-0.000000	 0.000000	 0.000000	 0.838483	 4.432139	-3.751269	 2.538608	 3.441084	 11.516720	-80.407630	 2.209478	-0.386981	-24.313910	 29.615620	-71.879870	 40.749270	 25.530140	-28.942230	-4.521293	 11.865700	 11.409670	-4.370067	 11.506590	 11.860950	 0.030357	 0.951386	-13.766810	 77.494190	 9.244770	 12.309580	 31.861870	 37.066950	 77.199730	-24.328840	-9.080368	 12.797610
-0.446980	 1.049680	-0.565320	-2.287199	 2.306985	-96.723230	 3.147377	 15.089960	-14.264170	-0.001946	 0.078704	-0.000379	 1.944870	-10.340440	 33.174220	-0.000040	 0.365082	 0.183355	 2.432946	-25.981590	-5.259100	-0.988911	 28.599990	 0.254310	 7.587633	-11.056670	 4.717110	 0.000439	 0.630393	 1.367948	 0.277753	 2.488749	-2.141715	-0.000000	 0.000000	 0.000000	 0.651202	 4.976424	-4.310787	 2.374965	 3.746957	 10.967750	-80.410480	 1.841751	-0.651379	-24.550100	 29.334130	-71.991420	 41.315690	 24.974490	-29.095330	-4.287680	 11.747070	 11.350470	-4.171117	 11.175530	 11.895340	 0.250482	 0.847124	-13.507580	 77.392570	 9.200006	 12.437540	 32.084030	 37.199480	 77.858120	-23.789610	-10.034450	 13.193490
-0.459810	 1.047280	-0.567250	-2.306428	 2.059187	-95.004410	 3.358449	 15.657370	-15.502170	-0.001884	 0.092826	 0.000683	 2.063212	-11.286240	 32.899850	 0.000073	 0.362563	 0.164111	 3.214160	-26.328390	 0.415971	-0.369886	 26.600110	 0.092269	 8.835253	-11.643820	 5.444341	-0.000108	 0.726890	 1.294923	 0.309754	 2.559059	-2.166178	-0.000000	 0.000000	 0.000000	 0.721198	 5.114434	-4.360371	 2.421538	 3.477768	 11.137720	-80.566690	 1.782030	-0.846299	-24.573390	 28.935480	-71.996120	 41.511650	 24.332480	-28.881990	-3.948537	 11.242350	 11.715810	-4.013503	 11.096360	 11.749570	 0.476686	 0.434257	-12.878380	 77.470280	 9.571753	 13.333360	 32.458930	 37.314320	 78.340680	-24.084260	-10.463290	 13.067700
-0.481030	 1.043060	-0.573280	-2.369589	 1.608448	-92.589040	 3.844540	 16.699590	-17.535160	-0.003126	 0.083281	-0.000766	 2.055803	-12.674930	 32.699600	-0.000196	 0.361854	 0.146497	 3.276748	-25.307120	 3.758329	-0.695513	 23.867010	 0.153595	 11.235270	-11.380900	 7.945538	-0.000599	 0.805664	 1.302677	 0.272729	 2.597248	-2.156721	-0.000000	 0.000000	 0.000000	 0.645837	 5.192380	-4.341288	 2.164120	 3.563169	 10.750930	-80.368630	 1.511844	-1.045868	-25.007480	 28.350920	-71.816900	 41.470810	 23.884690	-28.899890	-3.724655	 11.264230	 11.539740	-3.640751	 11.193220	 11.521920	 0.507660	 0.395951	-12.601840	 77.387530	 9.620996	 13.915860	 32.683470	 38.290740	 79.737500	-24.248340	-10.734650	 13.048390
-0.501540	 1.038980	-0.580000	-2.282798	 1.300714	-89.792530	 4.768019	 17.461850	-19.618540	-0.002626	 0.083310	 0.000335	 1.769004	-13.993180	 32.024570	-0.000133	 0.360483	 0.122672	 2.497146	-22.522610	 5.554795	-0.647726	 19.721920	 0.122874	 12.093920	-9.617619	 9.234356	 0.000026	 0.774944	 1.214771	 0.252757	 2.476882	-2.106191	-0.000000	 0.000000	 0.000000	 0.598974	 4.951669	-4.238949	 2.631388	 3.585128	 10.689740	-80.339510	 1.818708	-1.189771	-25.397200	 28.126800	-71.653270	 41.641020	 23.289520	-28.877120	-3.104896	 11.187150	 11.407320	-3.058550	 11.435620	 11.321280	 0.864601	-0.179422	-11.655500	 77.289710	 8.696066	 13.585890	 32.581780	 38.920490	 81.165020	-24.038020	-10.967040	 13.465640
-0.516530	 1.035900	-0.584480	-2.159685	 0.837516	-87.296520	 5.367448	 17.857900	-20.994820	-0.002833	 0.083323	-0.000029	 1.285146	-15.270450	 31.019800	 0.000807	 0.358873	 0.063860	 1.444636	-20.791140	 6.454327	-0.644469	 17.985840	 0.115194	 11.533420	-8.075709	 9.630878	-0.000200	 0.675631	 1.032010	 0.233858	 2.421823	-2.160962	-0.000000	 0.000000	 0.000000	 0.560631	 4.840554	-4.346289	 2.327203	 3.367225	 10.424600	-80.304530	 1.994942	-1.237500	-25.279420	 27.883670	-71.229190	 41.666230	 22.791350	-28.823830	-2.688179	 11.375560	 11.119450	-2.682626	 11.483740	 11.238160	 0.826055	 0.175637	-11.929790	 77.259380	 8.330541	 13.872830	 32.572980	 40.049730	 82.489650	-24.111850	-11.151650	 13.674700
